<?xml version="1.0" encoding="utf-8"?>
<!-- Generator: Adobe Illustrator 19.2.1, SVG Export Plug-In . SVG Version: 6.00 Build 0)  -->
<svg version="1.1" id="Layer_1" xmlns="http://www.w3.org/2000/svg" xmlns:xlink="http://www.w3.org/1999/xlink" x="0px" y="0px"
	 viewBox="0 0 150 150" fill="#fff" style="enable-background:new 0 0 150 150;" xml:space="preserve">
<g>
	<g>
		<path d="M76.2,5C115.6,5,147,36.7,147,76.4c0,39.4-31.9,70.7-72,70.6c-38.7,0-70-32.3-70-72.1C5,36.5,37.2,5,76.2,5z M29.1,116.7
			c0.8,0.9,1.3,1.7,2,2.4c15.6,15.7,34.5,21.7,56.1,17.9c37.8-6.6,60-44.3,47.4-82.3c-0.9-2.6-2.2-3.7-5-3.6
			c-5.3,0.2-10.7,0.1-16,0.1c-6.2,0-6.9,0.7-7.1,6.7c-0.5,17-0.9,33.9-1.3,50.9c-0.2,6.5-0.2,6.4-9,6.7c-5,0.2-6.2-2.2-6.2-6.6
			c0.1-15.5,0-31-0.1-46.5c0-3.4-0.4-6.8-0.6-10.1c-8.4,0-16.1,0-24.3,0c0,12.6,0.2,24.9-0.1,37.2c-0.3,13.4-7.3,22.3-20.3,25.5
			C39.8,116.1,34.7,116.1,29.1,116.7z M124.6,37.9c-1.1-1.8-1.5-2.6-2.2-3.3c-11.7-12.8-26.3-20-43.5-20.4
			c-39.5-1.1-68.3,29.6-64.7,69c0.7,8,0.9,16.5,12.2,19.2c12.8,3.1,21.7-2.5,21.7-15.8c0-12.3,0-24.7,0-37c0-3.8,0-7.5,0-11.7
			C73.7,37.9,98.6,37.9,124.6,37.9z"/>
	</g>
</g>
</svg>
